<svg width="80" height="30" viewBox="0 0 80 30" fill="none" xmlns="http://www.w3.org/2000/svg">
<g clip-path="url(#clip0_313_1160)">
<path d="M40.4167 9.91039H35.5619V0.00976562H30.8733L21.0488 13.5866H31.4371V19.7454H35.5498L35.5422 13.5866L37.7565 13.5821L40.4152 9.91039H40.4167ZM28.1572 9.91039L31.4386 5.36093V9.91039H28.1572Z" fill="#00D2AA"/>
<path d="M49.9928 19.7454H36.4033L44.9839 7.88973C45.4237 7.25045 45.6308 6.87344 45.6308 6.20585C45.6308 5.63363 45.4403 5.08972 45.0821 4.63373C44.3702 3.72921 43.5994 3.68301 42.6033 3.68301H38.0886V0.00976562H43.2986C44.3173 0.00976562 46.4228 0.181134 48.1549 2.38061C49.0255 3.48631 49.4865 4.80957 49.4865 6.20436C49.4865 7.9106 48.8169 9.30837 48.1897 10.2203L43.6749 16.0722H49.9928V19.744V19.7454Z" fill="#00D2AA"/>
<path d="M29.3087 16.0708H19.2545L16.5928 19.7455H24.1879C23.7329 20.5129 23.287 21.0583 22.3877 21.9345C20.379 23.8926 17.5208 24.9223 14.6959 24.9223C13.189 24.9223 11.7289 24.6139 10.3913 24.0252C9.22292 23.5126 8.14978 22.7869 7.21873 21.869C5.60298 20.276 4.57519 18.2598 4.24115 16.0737C4.16256 15.5567 4.12175 15.0306 4.12175 14.4972C4.12175 11.712 5.22209 9.09383 7.21873 7.12533C9.21536 5.15683 11.871 4.07199 14.6959 4.07199C16.0547 4.07199 17.3742 4.32234 18.6 4.80217C19.9225 5.31926 21.1483 6.06285 22.43 7.3876L24.859 4.02878C22.22 1.53723 18.6408 0.00683594 14.6974 0.00683594C6.58089 0.00683594 0 6.49499 0 14.4972C0 15.0291 0.0302292 15.5552 0.0861531 16.0737C0.627255 21.0106 3.68342 25.2025 7.96539 27.3811C9.98167 28.4078 12.2715 28.9875 14.6974 28.9875C22.2744 28.9875 28.5106 23.3338 29.3087 16.0737H29.3057L29.3087 16.0708Z" fill="#004141"/>
<path d="M37.5053 23.3979V29.0024H36.2221V26.6495H32.8757V29.0024H31.585V23.3979H32.8757V25.5348H36.2221V23.3979H37.5053Z" fill="#004141"/>
<path d="M42.6049 27.5051L42.9948 28.4171C42.3615 28.8731 41.63 29.0981 40.9241 29.0981C39.585 29.0981 38.3818 28.3455 38.3818 26.833C38.3818 25.4636 39.3325 24.5039 40.85 24.5039C42.3676 24.5039 43.0749 25.4651 43.1323 26.6572L43.1399 26.985H39.5744C39.6469 27.7614 40.256 28.0818 40.9634 28.0818C41.4909 28.0818 42.1091 27.897 42.6033 27.5051H42.6049ZM39.6484 26.2802H41.9867C41.8899 25.8003 41.4758 25.48 40.841 25.48C40.2969 25.48 39.8343 25.7527 39.6469 26.2802H39.6484Z" fill="#004141"/>
<path d="M48.1841 26.3681V29.0027H46.9749V27.9134C46.5608 28.6659 45.8866 29.0743 45.0584 29.0743C44.3767 29.0743 43.7676 28.7464 43.7676 28.0252C43.7676 26.8077 45.7975 26.3681 46.9583 26.1759C46.8766 25.6961 46.5033 25.5113 45.9592 25.5113C45.3576 25.5113 44.7001 25.7437 44.2376 26.0477L43.8643 25.1194C44.4568 24.7513 45.2201 24.5024 46.0166 24.5024C47.1699 24.5024 48.1841 24.9823 48.1841 26.3681ZM46.9749 26.8241C45.7325 27.073 45.0508 27.3039 45.0508 27.7361C45.0508 28.0088 45.3274 28.1131 45.5707 28.1131C46.1965 28.1131 46.9023 27.4723 46.9749 26.8241Z" fill="#004141"/>
<path d="M49.0527 23.0776H50.2468V29.0025H49.0527V23.0776Z" fill="#004141"/>
<path d="M55.0368 28.4095C54.4277 28.8983 53.8911 29.098 53.3228 29.098C52.4295 29.098 51.6662 28.6733 51.6662 27.4722V25.535H50.8047V24.5977H51.6662V23.8377L52.8678 23.3892V24.5977H54.9627V25.535H52.8678V27.3843C52.8678 27.809 53.0386 28.0414 53.4603 28.0414C53.882 28.0414 54.2644 27.7777 54.5652 27.5214L55.0368 28.4095Z" fill="#004141"/>
<path d="M60.2517 26.5274V29.0011H59.0501V26.7196C59.0501 25.9835 58.7327 25.599 58.0994 25.599C57.3935 25.599 56.8161 26.2234 56.8161 27.6882V29.0011H55.6221V23.0762H56.8161V25.8136C57.1003 25.0447 57.6852 24.5008 58.5135 24.5008C59.5942 24.5008 60.2517 25.1967 60.2517 26.5259V26.5274Z" fill="#004141"/>
<path d="M60.9258 26.7839C60.9258 25.3265 62.0307 24.5024 63.4832 24.5024C64.1739 24.5024 64.7981 24.6783 65.4405 25.0314L65.0097 26.0001C64.5306 25.6558 64.0515 25.5038 63.4998 25.5038C62.7698 25.5038 62.1516 25.9524 62.1516 26.769C62.1516 27.5856 62.7607 28.0654 63.4922 28.0654C64.0439 28.0654 64.5231 27.8896 65.0264 27.5453L65.4738 28.514C64.7996 28.9297 64.1422 29.0981 63.4681 29.0981C62.0231 29.0981 60.9258 28.2338 60.9258 26.7839Z" fill="#004141"/>
<path d="M70.4658 26.3681V29.0027H69.2552V27.9134C68.841 28.6659 68.1669 29.0743 67.3386 29.0743C66.657 29.0743 66.0479 28.7464 66.0479 28.0252C66.0479 26.8077 68.0777 26.3681 69.2385 26.1759C69.1569 25.6961 68.7836 25.5113 68.2395 25.5113C67.6379 25.5113 66.9804 25.7437 66.5179 26.0477L66.1446 25.1194C66.7371 24.7513 67.5004 24.5024 68.2969 24.5024C69.4501 24.5024 70.4658 24.9823 70.4658 26.3681ZM69.2552 26.8241C68.0127 27.073 67.3311 27.3039 67.3311 27.7361C67.3311 28.0088 67.6077 28.1131 67.851 28.1131C68.4768 28.1131 69.1826 27.4723 69.2552 26.8241Z" fill="#004141"/>
<path d="M75.0214 24.6873L74.7781 25.7527C74.6239 25.6723 74.3397 25.5933 74.0314 25.5933C73.1064 25.5933 72.529 26.3533 72.529 27.6914V29.0042H71.335V24.6008H72.529V25.8257C72.7965 25.0658 73.3407 24.5293 74.1614 24.5293C74.4864 24.5293 74.8189 24.6008 75.0229 24.6887L75.0214 24.6873Z" fill="#004141"/>
<path d="M79.4633 27.5051L79.8532 28.4171C79.2199 28.8731 78.4884 29.0981 77.7825 29.0981C76.4418 29.0981 75.2402 28.3455 75.2402 26.833C75.2402 25.4636 76.1909 24.5039 77.7084 24.5039C79.226 24.5039 79.9333 25.4651 79.9907 26.6572L79.9983 26.985H76.4343C76.5068 27.7614 77.116 28.0818 77.8233 28.0818C78.3508 28.0818 78.969 27.897 79.4633 27.5051ZM76.5068 26.2802H78.8451C78.7483 25.8003 78.3342 25.48 77.7009 25.48C77.1568 25.48 76.6943 25.7527 76.5068 26.2802Z" fill="#004141"/>
</g>
<defs>
<clipPath id="clip0_313_1160">
<rect width="80" height="29.0909" fill="white" transform="translate(0 0.00683594)"/>
</clipPath>
</defs>
</svg>
