<svg width="80" height="30" viewBox="0 0 80 30" fill="none" xmlns="http://www.w3.org/2000/svg">
<g clip-path="url(#clip0_639_4262)">
<path d="M40.4167 9.90356H35.5619V0.00292969H30.8733L21.0488 13.5798H31.4371V19.7386H35.5498L35.5422 13.5798L37.7565 13.5753L40.4152 9.90356H40.4167ZM28.1572 9.90356L31.4386 5.3541V9.90356H28.1572Z" fill="white"/>
<path d="M49.9928 19.7386H36.4033L44.9839 7.8829C45.4237 7.24362 45.6308 6.86661 45.6308 6.19902C45.6308 5.62679 45.4403 5.08289 45.0821 4.6269C44.3702 3.72237 43.5994 3.67617 42.6033 3.67617H38.0886V0.00292969H43.2986C44.3173 0.00292969 46.4228 0.174298 48.1549 2.37377C49.0255 3.47947 49.4865 4.80274 49.4865 6.19753C49.4865 7.90376 48.8169 9.30153 48.1897 10.2135L43.6749 16.0654H49.9928V19.7371V19.7386Z" fill="white"/>
<path d="M29.3087 16.0639H19.2545L16.5928 19.7387H24.1879C23.7329 20.5061 23.287 21.0515 22.3877 21.9277C20.379 23.8858 17.5208 24.9155 14.6959 24.9155C13.189 24.9155 11.7289 24.607 10.3913 24.0184C9.22292 23.5058 8.14978 22.7801 7.21873 21.8621C5.60298 20.2692 4.57519 18.253 4.24115 16.0669C4.16256 15.5498 4.12175 15.0238 4.12175 14.4903C4.12175 11.7052 5.22209 9.087 7.21873 7.1185C9.21536 5.14999 11.871 4.06516 14.6959 4.06516C16.0547 4.06516 17.3742 4.3155 18.6 4.79534C19.9225 5.31242 21.1483 6.05601 22.43 7.38076L24.859 4.02194C22.22 1.53039 18.6408 0 14.6974 0C6.58089 0 0 6.48816 0 14.4903C0 15.0223 0.0302292 15.5483 0.0861531 16.0669C0.627255 21.0038 3.68342 25.1956 7.96539 27.3742C9.98167 28.401 12.2715 28.9806 14.6974 28.9806C22.2744 28.9806 28.5106 23.327 29.3087 16.0669H29.3057L29.3087 16.0639Z" fill="white"/>
<path d="M37.5053 23.3911V28.9956H36.2221V26.6426H32.8757V28.9956H31.585V23.3911H32.8757V25.528H36.2221V23.3911H37.5053Z" fill="white"/>
<path d="M42.6049 27.4983L42.9948 28.4102C42.3615 28.8662 41.63 29.0912 40.9241 29.0912C39.585 29.0912 38.3818 28.3387 38.3818 26.8262C38.3818 25.4567 39.3325 24.4971 40.85 24.4971C42.3676 24.4971 43.0749 25.4582 43.1323 26.6504L43.1399 26.9782H39.5744C39.6469 27.7546 40.256 28.0749 40.9634 28.0749C41.4909 28.0749 42.1091 27.8902 42.6033 27.4983H42.6049ZM39.6484 26.2733H41.9867C41.8899 25.7935 41.4758 25.4731 40.841 25.4731C40.2969 25.4731 39.8343 25.7458 39.6469 26.2733H39.6484Z" fill="white"/>
<path d="M48.1841 26.3613V28.9959H46.9749V27.9066C46.5608 28.6591 45.8866 29.0674 45.0584 29.0674C44.3767 29.0674 43.7676 28.7396 43.7676 28.0183C43.7676 26.8009 45.7975 26.3613 46.9583 26.1691C46.8766 25.6892 46.5033 25.5044 45.9592 25.5044C45.3576 25.5044 44.7001 25.7369 44.2376 26.0409L43.8643 25.1125C44.4568 24.7445 45.2201 24.4956 46.0166 24.4956C47.1699 24.4956 48.1841 24.9754 48.1841 26.3613ZM46.9749 26.8173C45.7325 27.0661 45.0508 27.2971 45.0508 27.7293C45.0508 28.002 45.3274 28.1063 45.5707 28.1063C46.1965 28.1063 46.9023 27.4655 46.9749 26.8173Z" fill="white"/>
<path d="M49.0527 23.0708H50.2468V28.9957H49.0527V23.0708Z" fill="white"/>
<path d="M55.0368 28.4027C54.4277 28.8914 53.8911 29.0911 53.3228 29.0911C52.4295 29.0911 51.6662 28.6664 51.6662 27.4654V25.5282H50.8047V24.5908H51.6662V23.8309L52.8678 23.3823V24.5908H54.9627V25.5282H52.8678V27.3774C52.8678 27.8021 53.0386 28.0346 53.4603 28.0346C53.882 28.0346 54.2644 27.7708 54.5652 27.5145L55.0368 28.4027Z" fill="white"/>
<path d="M60.2517 26.5205V28.9942H59.0501V26.7128C59.0501 25.9766 58.7327 25.5922 58.0994 25.5922C57.3935 25.5922 56.8161 26.2166 56.8161 27.6814V28.9942H55.6221V23.0693H56.8161V25.8068C57.1003 25.0378 57.6852 24.4939 58.5135 24.4939C59.5942 24.4939 60.2517 25.1898 60.2517 26.5191V26.5205Z" fill="white"/>
<path d="M60.9258 26.777C60.9258 25.3197 62.0307 24.4956 63.4832 24.4956C64.1739 24.4956 64.7981 24.6714 65.4405 25.0246L65.0097 25.9932C64.5306 25.649 64.0515 25.497 63.4998 25.497C62.7698 25.497 62.1516 25.9455 62.1516 26.7621C62.1516 27.5787 62.7607 28.0586 63.4922 28.0586C64.0439 28.0586 64.5231 27.8827 65.0264 27.5385L65.4738 28.5071C64.7996 28.9229 64.1422 29.0913 63.4681 29.0913C62.0231 29.0913 60.9258 28.227 60.9258 26.777Z" fill="white"/>
<path d="M70.4658 26.3613V28.9959H69.2552V27.9066C68.841 28.6591 68.1669 29.0674 67.3386 29.0674C66.657 29.0674 66.0479 28.7396 66.0479 28.0183C66.0479 26.8009 68.0777 26.3613 69.2385 26.1691C69.1569 25.6892 68.7836 25.5044 68.2395 25.5044C67.6379 25.5044 66.9804 25.7369 66.5179 26.0409L66.1446 25.1125C66.7371 24.7445 67.5004 24.4956 68.2969 24.4956C69.4501 24.4956 70.4658 24.9754 70.4658 26.3613ZM69.2552 26.8173C68.0127 27.0661 67.3311 27.2971 67.3311 27.7293C67.3311 28.002 67.6077 28.1063 67.851 28.1063C68.4768 28.1063 69.1826 27.4655 69.2552 26.8173Z" fill="white"/>
<path d="M75.0214 24.6804L74.7781 25.7459C74.6239 25.6654 74.3397 25.5864 74.0314 25.5864C73.1064 25.5864 72.529 26.3464 72.529 27.6846V28.9974H71.335V24.594H72.529V25.8189C72.7965 25.0589 73.3407 24.5225 74.1614 24.5225C74.4864 24.5225 74.8189 24.594 75.0229 24.6819L75.0214 24.6804Z" fill="white"/>
<path d="M79.4633 27.4983L79.8532 28.4102C79.2199 28.8662 78.4884 29.0912 77.7825 29.0912C76.4418 29.0912 75.2402 28.3387 75.2402 26.8262C75.2402 25.4567 76.1909 24.4971 77.7084 24.4971C79.226 24.4971 79.9333 25.4582 79.9907 26.6504L79.9983 26.9782H76.4343C76.5068 27.7546 77.116 28.0749 77.8233 28.0749C78.3508 28.0749 78.969 27.8902 79.4633 27.4983ZM76.5068 26.2733H78.8451C78.7483 25.7935 78.3342 25.4731 77.7009 25.4731C77.1568 25.4731 76.6943 25.7458 76.5068 26.2733Z" fill="white"/>
</g>
<defs>
<clipPath id="clip0_639_4262">
<rect width="80" height="29.0909" fill="white"/>
</clipPath>
</defs>
</svg>
