<svg width="63" height="63" viewBox="0 0 63 63" fill="none" xmlns="http://www.w3.org/2000/svg">
<mask id="path-1-inside-1_639_4094" fill="white">
<path d="M-0.000488281 31.8258C-0.000488281 48.9686 14.0616 62.8656 31.408 62.8656C48.7544 62.8656 62.8164 48.9686 62.8164 31.8258C62.8164 14.6831 48.7544 0.786133 31.408 0.786133C14.0616 0.786133 -0.000488281 14.6831 -0.000488281 31.8258Z"/>
</mask>
<path d="M-0.500488 31.8258C-0.500488 31.4778 -0.494781 31.131 -0.483456 30.7856L0.516006 30.8184C0.505039 31.1529 0.499512 31.4887 0.499512 31.8258H-0.500488ZM-0.347214 28.7151C-0.278538 28.0219 -0.187149 27.3352 -0.0737915 26.6558L0.912575 26.8203C0.802856 27.4779 0.714397 28.1426 0.647915 28.8137L-0.347214 28.7151ZM0.336334 24.6195C0.496284 23.9431 0.678257 23.275 0.881462 22.6161L1.83705 22.9109C1.6404 23.5485 1.46429 24.195 1.30949 24.8496L0.336334 24.6195ZM1.55967 20.6529C1.80818 20.0046 2.07769 19.3665 2.36736 18.7394L3.27518 19.1588C2.99479 19.7658 2.73394 20.3834 2.49341 21.0108L1.55967 20.6529ZM3.30021 16.8845C3.63213 16.2758 3.98368 15.679 4.35403 15.0951L5.19849 15.6307C4.83989 16.1961 4.49953 16.7739 4.1782 17.3632L3.30021 16.8845ZM5.52326 13.3793C5.93182 12.8201 6.35845 12.2747 6.80232 11.744L7.56943 12.3855C7.13953 12.8995 6.72634 13.4277 6.33069 13.9692L5.52326 13.3793ZM8.18541 10.1957C8.66292 9.69496 9.15683 9.20971 9.66626 8.74073L10.3435 9.47646C9.85005 9.93076 9.37162 10.4008 8.90907 10.8858L8.18541 10.1957ZM11.2385 7.38502C11.7763 6.95084 12.3288 6.53365 12.8951 6.13431L13.4714 6.95151C12.9229 7.33838 12.3877 7.74252 11.8666 8.16314L11.2385 7.38502ZM14.6296 4.99342C15.2187 4.63278 15.8205 4.29055 16.4343 3.96756L16.9 4.85251C16.3054 5.1654 15.7224 5.49692 15.1517 5.84629L14.6296 4.99342ZM18.3016 3.06117C18.9319 2.78013 19.5732 2.51873 20.2245 2.27776L20.5715 3.21564C19.9405 3.44905 19.3194 3.70226 18.7088 3.97451L18.3016 3.06117ZM22.1938 1.62121C22.8541 1.42467 23.5234 1.2487 24.201 1.09407L24.4235 2.069C23.7671 2.2188 23.1187 2.38927 22.479 2.57966L22.1938 1.62121ZM26.2392 0.69789C26.9187 0.588481 27.6053 0.500289 28.2984 0.43402L28.3936 1.42948C27.7219 1.4937 27.0565 1.57917 26.3982 1.68517L26.2392 0.69789ZM30.3682 0.302565C30.7135 0.291638 31.0601 0.286133 31.408 0.286133V1.28613C31.0706 1.28613 30.7346 1.29147 30.3999 1.30206L30.3682 0.302565ZM31.408 0.286133C31.7558 0.286133 32.1024 0.291638 32.4477 0.302565L32.416 1.30206C32.0813 1.29147 31.7453 1.28613 31.408 1.28613V0.286133ZM34.5175 0.434019C35.2106 0.500288 35.8972 0.58848 36.5767 0.697889L36.4178 1.68517C35.7594 1.57917 35.094 1.4937 34.4223 1.42948L34.5175 0.434019ZM38.6149 1.09406C39.2925 1.2487 39.9618 1.42467 40.6221 1.62121L40.3369 2.57966C39.6972 2.38927 39.0488 2.2188 38.3924 2.069L38.6149 1.09406ZM42.5914 2.27776C43.2428 2.51873 43.884 2.78013 44.5144 3.06118L44.1071 3.97451C43.4965 3.70227 42.8754 3.44905 42.2444 3.21564L42.5914 2.27776ZM46.3816 3.96756C46.9954 4.29056 47.5973 4.63278 48.1863 4.99343L47.6642 5.84629C47.0935 5.49692 46.5105 5.1654 45.9159 4.85252L46.3816 3.96756ZM49.9209 6.13431C50.4871 6.53366 51.0396 6.95084 51.5774 7.38502L50.9493 8.16314C50.4283 7.74253 49.8931 7.33838 49.3445 6.95151L49.9209 6.13431ZM53.1497 8.74074C53.6591 9.20971 54.153 9.69497 54.6305 10.1957L53.9068 10.8858C53.4443 10.4008 52.9659 9.93076 52.4724 9.47646L53.1497 8.74074ZM56.0136 11.744C56.4575 12.2747 56.8841 12.8201 57.2927 13.3793L56.4852 13.9692C56.0896 13.4277 55.6764 12.8995 55.2465 12.3855L56.0136 11.744ZM58.4619 15.0951C58.8322 15.679 59.1838 16.2758 59.5157 16.8846L58.6377 17.3632C58.3164 16.7739 57.976 16.1961 57.6174 15.6307L58.4619 15.0951ZM60.4486 18.7394C60.7382 19.3665 61.0077 20.0046 61.2563 20.6529L60.3225 21.0108C60.082 20.3834 59.8211 19.7658 59.5407 19.1588L60.4486 18.7394ZM61.9345 22.6161C62.1377 23.275 62.3196 23.9431 62.4796 24.6195L61.5064 24.8496C61.3516 24.195 61.1755 23.5485 60.9789 22.9109L61.9345 22.6161ZM62.8897 26.6558C63.0031 27.3352 63.0945 28.0219 63.1631 28.7151L62.168 28.8137C62.1015 28.1426 62.0131 27.4779 61.9033 26.8203L62.8897 26.6558ZM63.2994 30.7856C63.3107 31.131 63.3164 31.4778 63.3164 31.8258H62.3164C62.3164 31.4887 62.3109 31.1529 62.2999 30.8184L63.2994 30.7856ZM63.3164 31.8258C63.3164 32.1739 63.3107 32.5207 63.2994 32.8661L62.2999 32.8333C62.3109 32.4988 62.3164 32.163 62.3164 31.8258H63.3164ZM63.1631 34.9366C63.0945 35.6298 63.0031 36.3165 62.8897 36.9959L61.9033 36.8314C62.0131 36.1738 62.1015 35.5091 62.168 34.838L63.1631 34.9366ZM62.4796 39.0322C62.3196 39.7086 62.1377 40.3767 61.9345 41.0355L60.9789 40.7408C61.1755 40.1032 61.3516 39.4567 61.5064 38.8021L62.4796 39.0322ZM61.2563 42.9988C61.0077 43.6471 60.7382 44.2852 60.4486 44.9123L59.5407 44.4929C59.8211 43.8859 60.082 43.2683 60.3225 42.6409L61.2563 42.9988ZM59.5157 46.7671C59.1838 47.3759 58.8322 47.9727 58.4619 48.5566L57.6174 48.021C57.976 47.4556 58.3164 46.8778 58.6377 46.2885L59.5157 46.7671ZM57.2927 50.2724C56.8841 50.8316 56.4575 51.377 56.0136 51.9077L55.2465 51.2662C55.6764 50.7522 56.0896 50.224 56.4852 49.6825L57.2927 50.2724ZM54.6305 53.456C54.153 53.9567 53.6591 54.442 53.1497 54.911L52.4724 54.1752C52.9659 53.7209 53.4443 53.2509 53.9068 52.7659L54.6305 53.456ZM51.5774 56.2667C51.0396 56.7009 50.4871 57.118 49.9209 57.5174L49.3445 56.7002C49.8931 56.3133 50.4283 55.9092 50.9493 55.4886L51.5774 56.2667ZM48.1863 58.6583C47.5973 59.0189 46.9954 59.3611 46.3816 59.6841L45.9159 58.7992C46.5105 58.4863 47.0935 58.1548 47.6642 57.8054L48.1863 58.6583ZM44.5144 60.5905C43.884 60.8716 43.2427 61.133 42.5914 61.3739L42.2444 60.4361C42.8754 60.2026 43.4965 59.9494 44.1071 59.6772L44.5144 60.5905ZM40.6221 62.0305C39.9618 62.227 39.2925 62.403 38.6149 62.5576L38.3924 61.5827C39.0488 61.4329 39.6972 61.2624 40.3369 61.072L40.6221 62.0305ZM36.5767 62.9538C35.8972 63.0632 35.2106 63.1514 34.5175 63.2177L34.4223 62.2222C35.094 62.158 35.7594 62.0725 36.4178 61.9665L36.5767 62.9538ZM32.4477 63.3491C32.1024 63.3601 31.7558 63.3656 31.408 63.3656V62.3656C31.7453 62.3656 32.0814 62.3602 32.416 62.3496L32.4477 63.3491ZM31.408 63.3656C31.0601 63.3656 30.7135 63.3601 30.3682 63.3491L30.3999 62.3496C30.7346 62.3602 31.0706 62.3656 31.408 62.3656V63.3656ZM28.2984 63.2177C27.6053 63.1514 26.9187 63.0632 26.2392 62.9538L26.3982 61.9665C27.0565 62.0725 27.7219 62.158 28.3936 62.2222L28.2984 63.2177ZM24.201 62.5576C23.5234 62.403 22.8541 62.227 22.1938 62.0305L22.479 61.072C23.1187 61.2624 23.7671 61.4329 24.4235 61.5827L24.201 62.5576ZM20.2245 61.3739C19.5732 61.133 18.9319 60.8716 18.3016 60.5905L18.7088 59.6772C19.3194 59.9494 19.9405 60.2026 20.5715 60.4361L20.2245 61.3739ZM16.4343 59.6841C15.8205 59.3611 15.2187 59.0189 14.6296 58.6583L15.1517 57.8054C15.7224 58.1548 16.3054 58.4863 16.9 58.7992L16.4343 59.6841ZM12.8951 57.5174C12.3288 57.118 11.7763 56.7009 11.2385 56.2667L11.8666 55.4886C12.3876 55.9092 12.9229 56.3133 13.4714 56.7002L12.8951 57.5174ZM9.66626 54.911C9.15682 54.442 8.66292 53.9567 8.1854 53.456L8.90907 52.7659C9.37161 53.2509 9.85004 53.7209 10.3435 54.1752L9.66626 54.911ZM6.80231 51.9077C6.35845 51.377 5.93181 50.8316 5.52325 50.2724L6.33069 49.6825C6.72634 50.224 7.13952 50.7522 7.56942 51.2662L6.80231 51.9077ZM4.35403 48.5566C3.98368 47.9727 3.63212 47.3759 3.30021 46.7671L4.1782 46.2885C4.49952 46.8778 4.83989 47.4556 5.19849 48.021L4.35403 48.5566ZM2.36736 44.9123C2.07769 44.2852 1.80818 43.6471 1.55967 42.9988L2.49341 42.6409C2.73394 43.2683 2.99479 43.8859 3.27517 44.4929L2.36736 44.9123ZM0.881462 41.0355C0.678257 40.3767 0.496284 39.7086 0.336334 39.0322L1.30949 38.8021C1.46429 39.4567 1.6404 40.1032 1.83705 40.7408L0.881462 41.0355ZM-0.0737915 36.9959C-0.187149 36.3165 -0.278538 35.6298 -0.347214 34.9366L0.647915 34.838C0.714397 35.5091 0.80286 36.1738 0.912575 36.8314L-0.0737915 36.9959ZM-0.483456 32.8661C-0.494781 32.5207 -0.500488 32.1739 -0.500488 31.8258H0.499512C0.499512 32.163 0.505039 32.4988 0.516006 32.8333L-0.483456 32.8661ZM-1.00049 31.8258C-1.00049 31.4723 -0.994694 31.1201 -0.983189 30.7692L1.01574 30.8348C1.00495 31.1638 0.999512 31.4942 0.999512 31.8258H-1.00049ZM-0.84478 28.6658C-0.775005 27.9615 -0.682156 27.2638 -0.566975 26.5735L1.40575 26.9026C1.29786 27.5493 1.21087 28.2029 1.14548 28.863L-0.84478 28.6658ZM-0.150246 24.5044C0.0122833 23.8171 0.197189 23.1383 0.403667 22.4688L2.31484 23.0582C2.12146 23.6852 1.94829 24.321 1.79607 24.9647L-0.150246 24.5044ZM1.09279 20.4739C1.34531 19.8152 1.61914 19.1669 1.91346 18.5297L3.72908 19.3685C3.45334 19.9654 3.19681 20.5728 2.96029 21.1898L1.09279 20.4739ZM2.86121 16.6452C3.19842 16.0267 3.55557 15.4205 3.9318 14.8273L5.62072 15.8985C5.268 16.4546 4.93323 17.0229 4.6172 17.6026L2.86121 16.6452ZM5.11954 13.0843C5.53455 12.5163 5.96792 11.9623 6.41876 11.4232L7.95298 12.7062C7.53006 13.2119 7.1236 13.7315 6.73441 14.2642L5.11954 13.0843ZM7.82357 9.8506C8.30857 9.34204 8.81021 8.84918 9.32762 8.37287L10.6822 9.84432C10.1967 10.2913 9.72596 10.7537 9.27091 11.2309L7.82357 9.8506ZM10.9244 6.99596C11.4707 6.55499 12.0318 6.13129 12.6069 5.7257L13.7596 7.36011C13.2199 7.74074 12.6933 8.13837 12.1807 8.5522L10.9244 6.99596ZM14.3685 4.56699C14.9668 4.20071 15.5781 3.85313 16.2015 3.52508L17.1328 5.29499C16.5478 5.60282 15.9742 5.92899 15.4128 6.27272L14.3685 4.56699ZM18.098 2.60451C18.7382 2.31906 19.3895 2.05356 20.051 1.80882L20.745 3.68458C20.1242 3.91422 19.5131 4.16333 18.9124 4.43117L18.098 2.60451ZM22.0511 1.14199C22.7218 0.942368 23.4016 0.763649 24.0898 0.606599L24.5348 2.55647C23.8889 2.70386 23.251 2.87157 22.6217 3.05888L22.0511 1.14199ZM26.1597 0.204248C26.8498 0.093138 27.547 0.00358123 28.2508 -0.0637102L28.4412 1.92721C27.7802 1.99041 27.1254 2.07451 26.4776 2.17881L26.1597 0.204248ZM30.3524 -0.197185C30.7029 -0.208279 31.0548 -0.213867 31.408 -0.213867V1.78613C31.0759 1.78613 30.7451 1.79139 30.4157 1.80181L30.3524 -0.197185ZM31.408 -0.213867C31.7611 -0.213867 32.113 -0.208279 32.4635 -0.197185L32.4002 1.80181C32.0708 1.79139 31.74 1.78613 31.408 1.78613V-0.213867ZM34.5651 -0.0637106C35.2689 0.00358069 35.9662 0.0931374 36.6562 0.204248L36.3383 2.17881C35.6905 2.07451 35.0357 1.99041 34.3747 1.92721L34.5651 -0.0637106ZM38.7261 0.606598C39.4143 0.763649 40.0941 0.942367 40.7648 1.14199L40.1942 3.05888C39.5649 2.87157 38.927 2.70386 38.2811 2.55647L38.7261 0.606598ZM42.7649 1.80882C43.4264 2.05356 44.0777 2.31906 44.718 2.60451L43.9035 4.43117C43.3028 4.16333 42.6917 3.91422 42.071 3.68458L42.7649 1.80882ZM46.6145 3.52509C47.2379 3.85313 47.8491 4.20071 48.4474 4.56699L47.4031 6.27272C46.8417 5.92899 46.2681 5.60282 45.6831 5.29499L46.6145 3.52509ZM50.209 5.72571C50.7841 6.13129 51.3452 6.55499 51.8915 6.99596L50.6353 8.5522C50.1226 8.13837 49.596 7.74074 49.0563 7.36011L50.209 5.72571ZM53.4883 8.37287C54.0057 8.84918 54.5073 9.34204 54.9923 9.8506L53.545 11.2309C53.09 10.7537 52.6193 10.2913 52.1337 9.84432L53.4883 8.37287ZM56.3972 11.4232C56.848 11.9623 57.2814 12.5163 57.6964 13.0843L56.0815 14.2642C55.6923 13.7315 55.2859 13.212 54.8629 12.7062L56.3972 11.4232ZM58.8841 14.8273C59.2603 15.4205 59.6175 16.0267 59.9547 16.6452L58.1987 17.6026C57.8827 17.0229 57.5479 16.4546 57.1952 15.8985L58.8841 14.8273ZM60.9025 18.5298C61.1968 19.1669 61.4706 19.8152 61.7231 20.4739L59.8556 21.1898C59.6191 20.5728 59.3626 19.9654 59.0868 19.3685L60.9025 18.5298ZM62.4122 22.4688C62.6187 23.1383 62.8036 23.8171 62.9662 24.5044L61.0198 24.9647C60.8676 24.321 60.6945 23.6852 60.5011 23.0582L62.4122 22.4688ZM63.3829 26.5735C63.4981 27.2638 63.5909 27.9615 63.6607 28.6658L61.6704 28.863C61.6051 28.2029 61.5181 27.5493 61.4102 26.9026L63.3829 26.5735ZM63.7991 30.7692C63.8106 31.1201 63.8164 31.4723 63.8164 31.8258H61.8164C61.8164 31.4942 61.811 31.1638 61.8002 30.8348L63.7991 30.7692ZM63.8164 31.8258C63.8164 32.1794 63.8106 32.5316 63.7991 32.8825L61.8002 32.8169C61.811 32.4879 61.8164 32.1575 61.8164 31.8258H63.8164ZM63.6607 34.9859C63.5909 35.6902 63.4981 36.3879 63.3829 37.0782L61.4102 36.7491C61.5181 36.1024 61.6051 35.4487 61.6704 34.7887L63.6607 34.9859ZM62.9662 39.1473C62.8036 39.8346 62.6187 40.5134 62.4122 41.1829L60.5011 40.5935C60.6945 39.9665 60.8676 39.3307 61.0198 38.687L62.9662 39.1473ZM61.7231 43.1778C61.4706 43.8365 61.1968 44.4848 60.9025 45.1219L59.0868 44.2832C59.3626 43.6863 59.6191 43.0789 59.8556 42.4619L61.7231 43.1778ZM59.9547 47.0065C59.6175 47.625 59.2603 48.2312 58.8841 48.8244L57.1952 47.7532C57.5479 47.1971 57.8827 46.6288 58.1987 46.0491L59.9547 47.0065ZM57.6964 50.5674C57.2814 51.1354 56.848 51.6894 56.3972 52.2285L54.8629 50.9455C55.2859 50.4397 55.6923 49.9202 56.0815 49.3875L57.6964 50.5674ZM54.9923 53.8011C54.5073 54.3097 54.0057 54.8025 53.4883 55.2788L52.1337 53.8074C52.6193 53.3604 53.09 52.898 53.545 52.4208L54.9923 53.8011ZM51.8915 56.6557C51.3452 57.0967 50.7841 57.5204 50.209 57.926L49.0563 56.2916C49.596 55.911 50.1226 55.5133 50.6353 55.0995L51.8915 56.6557ZM48.4474 59.0847C47.8491 59.451 47.2378 59.7986 46.6145 60.1266L45.6831 58.3567C46.2681 58.0489 46.8417 57.7227 47.4031 57.379L48.4474 59.0847ZM44.718 61.0472C44.0777 61.3326 43.4264 61.5981 42.7649 61.8429L42.0709 59.9671C42.6917 59.7375 43.3028 59.4884 43.9035 59.2205L44.718 61.0472ZM40.7648 62.5097C40.0941 62.7093 39.4143 62.888 38.7261 63.0451L38.2811 61.0952C38.927 60.9478 39.5649 60.7801 40.1942 60.5928L40.7648 62.5097ZM36.6562 63.4474C35.9662 63.5586 35.2689 63.6481 34.5651 63.7154L34.3747 61.7245C35.0357 61.6613 35.6905 61.5772 36.3383 61.4729L36.6562 63.4474ZM32.4635 63.8489C32.113 63.86 31.7611 63.8656 31.408 63.8656V61.8656C31.74 61.8656 32.0708 61.8603 32.4002 61.8499L32.4635 63.8489ZM31.408 63.8656C31.0548 63.8656 30.7029 63.86 30.3524 63.8489L30.4157 61.8499C30.7451 61.8603 31.0759 61.8656 31.408 61.8656V63.8656ZM28.2508 63.7154C27.547 63.6481 26.8498 63.5586 26.1597 63.4474L26.4776 61.4729C27.1254 61.5772 27.7802 61.6613 28.4412 61.7245L28.2508 63.7154ZM24.0898 63.0451C23.4016 62.888 22.7218 62.7093 22.0511 62.5097L22.6217 60.5928C23.251 60.7801 23.8889 60.9478 24.5348 61.0952L24.0898 63.0451ZM20.051 61.8429C19.3895 61.5981 18.7382 61.3326 18.098 61.0472L18.9124 59.2205C19.5131 59.4884 20.1242 59.7375 20.745 59.9671L20.051 61.8429ZM16.2015 60.1266C15.5781 59.7986 14.9668 59.451 14.3685 59.0847L15.4128 57.379C15.9742 57.7227 16.5478 58.0489 17.1328 58.3567L16.2015 60.1266ZM12.6069 57.926C12.0318 57.5204 11.4707 57.0967 10.9244 56.6557L12.1806 55.0995C12.6933 55.5133 13.2199 55.9109 13.7596 56.2916L12.6069 57.926ZM9.32762 55.2788C8.81021 54.8025 8.30857 54.3097 7.82357 53.8011L9.2709 52.4208C9.72596 52.898 10.1967 53.3604 10.6822 53.8074L9.32762 55.2788ZM6.41876 52.2285C5.96791 51.6894 5.53455 51.1354 5.11954 50.5674L6.7344 49.3875C7.1236 49.9202 7.53006 50.4397 7.95298 50.9455L6.41876 52.2285ZM3.9318 48.8244C3.55557 48.2312 3.19842 47.625 2.86121 47.0065L4.61719 46.0491C4.93322 46.6288 5.268 47.1971 5.62072 47.7532L3.9318 48.8244ZM1.91345 45.1219C1.61914 44.4848 1.3453 43.8365 1.09279 43.1778L2.96029 42.4619C3.19681 43.0789 3.45333 43.6863 3.72908 44.2832L1.91345 45.1219ZM0.403671 41.1829C0.197189 40.5134 0.0122833 39.8346 -0.150246 39.1473L1.79607 38.687C1.94829 39.3307 2.12146 39.9665 2.31484 40.5935L0.403671 41.1829ZM-0.566975 37.0782C-0.682156 36.3879 -0.775005 35.6902 -0.844776 34.9859L1.14548 34.7887C1.21087 35.4488 1.29786 36.1024 1.40576 36.7491L-0.566975 37.0782ZM-0.983189 32.8825C-0.994694 32.5316 -1.00049 32.1794 -1.00049 31.8258H0.999512C0.999512 32.1575 1.00495 32.4879 1.01574 32.8169L-0.983189 32.8825Z" fill="white" mask="url(#path-1-inside-1_639_4094)"/>
<path d="M39.6582 31.8259H23.1582" stroke="white" stroke-width="2" stroke-linecap="square" stroke-linejoin="round"/>
<path d="M29.0195 25.0759L22.2695 31.8259L29.0195 38.5759" stroke="white" stroke-width="2" stroke-linecap="square"/>
</svg>
