<svg width="34" height="38" viewBox="0 0 34 38" fill="none" xmlns="http://www.w3.org/2000/svg">
<path d="M32.3921 17.7876C32.525 17.9204 32.6305 18.0781 32.7024 18.2517C32.7744 18.4253 32.8114 18.6114 32.8114 18.7993C32.8114 18.9872 32.7744 19.1732 32.7024 19.3468C32.6305 19.5204 32.525 19.6781 32.3921 19.8109L17.7271 34.4669C15.8497 36.3441 13.3035 37.3986 10.6487 37.3984C7.99382 37.3982 5.44776 36.3434 3.57062 34.466C1.69347 32.5887 0.638993 30.0425 0.63916 27.3876C0.639328 24.7328 1.69413 22.1867 3.57151 20.3096L21.3125 2.30765C22.6528 0.965921 24.4712 0.211578 26.3677 0.210572C28.2642 0.209567 30.0834 0.961981 31.4251 2.30229C32.7669 3.6426 33.5212 5.46102 33.5222 7.35751C33.5232 9.25401 32.7708 11.0732 31.4305 12.415L13.686 30.4169C12.8801 31.2227 11.7872 31.6754 10.6475 31.6754C9.50788 31.6754 8.41492 31.2227 7.60907 30.4169C6.80322 29.611 6.3505 28.5181 6.3505 27.3784C6.3505 26.2388 6.80322 25.1458 7.60907 24.34L22.4975 9.21565C22.6279 9.07652 22.7848 8.96489 22.959 8.88732C23.1332 8.80975 23.3212 8.76781 23.5119 8.76397C23.7025 8.76013 23.892 8.79447 24.0692 8.86497C24.2464 8.93547 24.4077 9.0407 24.5436 9.17447C24.6795 9.30823 24.7873 9.46784 24.8606 9.64389C24.9339 9.81993 24.9713 10.0089 24.9705 10.1996C24.9697 10.3903 24.9307 10.5789 24.856 10.7543C24.7812 10.9297 24.672 11.0884 24.535 11.221L9.64483 26.3614C9.51151 26.4937 9.40555 26.6509 9.33299 26.8241C9.26044 26.9973 9.22271 27.1831 9.22196 27.3709C9.22122 27.5587 9.25747 27.7448 9.32864 27.9186C9.39982 28.0924 9.50453 28.2505 9.63679 28.3838C9.76905 28.5171 9.92627 28.6231 10.0995 28.6956C10.2727 28.7682 10.4585 28.8059 10.6463 28.8067C10.8341 28.8074 11.0202 28.7711 11.194 28.7C11.3678 28.6288 11.5258 28.5241 11.6591 28.3918L29.4019 10.3989C30.2077 9.59467 30.6611 8.5033 30.6623 7.36484C30.6635 6.22637 30.2123 5.13407 29.4081 4.32822C28.604 3.52238 27.5126 3.069 26.3741 3.06782C25.2357 3.06665 24.1433 3.51778 23.3375 4.32197L5.60012 22.3167C4.93564 22.9801 4.40834 23.7679 4.04833 24.6351C3.68831 25.5024 3.50263 26.432 3.50188 27.3709C3.50113 28.3099 3.68534 29.2398 4.04397 30.1076C4.40261 30.9754 4.92866 31.764 5.59208 32.4285C6.2555 33.093 7.0433 33.6203 7.9105 33.9803C8.77771 34.3403 9.70733 34.526 10.6463 34.5267C11.5853 34.5275 12.5152 34.3433 13.383 33.9846C14.2507 33.626 15.0394 33.1 15.7038 32.4365L30.3706 17.7805C30.6397 17.5135 31.0038 17.3643 31.3828 17.3656C31.7619 17.3669 32.1249 17.5187 32.3921 17.7876Z" fill="white"/>
</svg>
