<svg width="63" height="63" viewBox="0 0 63 63" fill="none" xmlns="http://www.w3.org/2000/svg">
<mask id="path-1-inside-1_639_4104" fill="white">
<path d="M62.8657 31.8258C62.8657 48.9686 48.8037 62.8656 31.4573 62.8656C14.1109 62.8656 0.0488281 48.9686 0.0488281 31.8258C0.0488281 14.6831 14.1109 0.786133 31.4573 0.786133C48.8037 0.786133 62.8657 14.6831 62.8657 31.8258Z"/>
</mask>
<path d="M63.3657 31.8258C63.3657 31.4778 63.36 31.131 63.3487 30.7856L62.3492 30.8184C62.3602 31.1529 62.3657 31.4887 62.3657 31.8258H63.3657ZM63.2124 28.7151C63.1438 28.0219 63.0524 27.3352 62.939 26.6558L61.9527 26.8203C62.0624 27.4779 62.1508 28.1426 62.2173 28.8137L63.2124 28.7151ZM62.5289 24.6195C62.3689 23.9431 62.187 23.275 61.9838 22.6161L61.0282 22.9109C61.2248 23.5485 61.4009 24.195 61.5557 24.8496L62.5289 24.6195ZM61.3056 20.6529C61.0571 20.0046 60.7875 19.3665 60.4979 18.7394L59.5901 19.1588C59.8704 19.7658 60.1313 20.3834 60.3718 21.0108L61.3056 20.6529ZM59.565 16.8845C59.2331 16.2758 58.8816 15.679 58.5112 15.0951L57.6667 15.6307C58.0253 16.1961 58.3657 16.7739 58.687 17.3632L59.565 16.8845ZM57.342 13.3793C56.9334 12.8201 56.5068 12.2747 56.0629 11.744L55.2958 12.3855C55.7257 12.8995 56.1389 13.4277 56.5345 13.9692L57.342 13.3793ZM54.6798 10.1957C54.2023 9.69496 53.7084 9.20971 53.199 8.74073L52.5217 9.47646C53.0152 9.93076 53.4936 10.4008 53.9562 10.8858L54.6798 10.1957ZM51.6268 7.38502C51.0889 6.95084 50.5364 6.53365 49.9702 6.13431L49.3938 6.95151C49.9424 7.33838 50.4776 7.74252 50.9986 8.16314L51.6268 7.38502ZM48.2357 4.99342C47.6466 4.63278 47.0447 4.29055 46.4309 3.96756L45.9652 4.85251C46.5598 5.1654 47.1429 5.49692 47.7135 5.84629L48.2357 4.99342ZM44.5637 3.06117C43.9333 2.78013 43.2921 2.51873 42.6407 2.27776L42.2937 3.21564C42.9247 3.44905 43.5458 3.70226 44.1565 3.97451L44.5637 3.06117ZM40.6715 1.62121C40.0111 1.42467 39.3418 1.2487 38.6642 1.09407L38.4417 2.069C39.0981 2.2188 39.7465 2.38927 40.3862 2.57966L40.6715 1.62121ZM36.626 0.69789C35.9466 0.588481 35.2599 0.500289 34.5668 0.43402L34.4716 1.42948C35.1433 1.4937 35.8087 1.57917 36.4671 1.68517L36.626 0.69789ZM32.497 0.302565C32.1518 0.291638 31.8052 0.286133 31.4573 0.286133V1.28613C31.7946 1.28613 32.1307 1.29147 32.4654 1.30206L32.497 0.302565ZM31.4573 0.286133C31.1094 0.286133 30.7628 0.291638 30.4176 0.302565L30.4492 1.30206C30.7839 1.29147 31.1199 1.28613 31.4573 1.28613V0.286133ZM28.3477 0.434019C27.6546 0.500288 26.968 0.58848 26.2885 0.697889L26.4475 1.68517C27.1058 1.57917 27.7712 1.4937 28.4429 1.42948L28.3477 0.434019ZM24.2504 1.09406C23.5728 1.2487 22.9034 1.42467 22.2431 1.62121L22.5284 2.57966C23.168 2.38927 23.8164 2.2188 24.4728 2.069L24.2504 1.09406ZM20.2738 2.27776C19.6225 2.51873 18.9812 2.78013 18.3509 3.06118L18.7581 3.97451C19.3687 3.70227 19.9899 3.44905 20.6208 3.21564L20.2738 2.27776ZM16.4836 3.96756C15.8698 4.29056 15.268 4.63278 14.6789 4.99343L15.201 5.84629C15.7717 5.49692 16.3547 5.1654 16.9493 4.85252L16.4836 3.96756ZM12.9444 6.13431C12.3781 6.53366 11.8257 6.95084 11.2878 7.38502L11.9159 8.16314C12.437 7.74253 12.9722 7.33838 13.5207 6.95151L12.9444 6.13431ZM9.71558 8.74074C9.20614 9.20971 8.71224 9.69497 8.23472 10.1957L8.95839 10.8858C9.42093 10.4008 9.89936 9.93076 10.3929 9.47646L9.71558 8.74074ZM6.85163 11.744C6.40777 12.2747 5.98113 12.8201 5.57257 13.3793L6.38 13.9692C6.77565 13.4277 7.18884 12.8995 7.61874 12.3855L6.85163 11.744ZM4.40335 15.0951C4.03299 15.679 3.68144 16.2758 3.34952 16.8846L4.22751 17.3632C4.54884 16.7739 4.88921 16.1961 5.2478 15.6307L4.40335 15.0951ZM2.41668 18.7394C2.127 19.3665 1.8575 20.0046 1.60898 20.6529L2.54273 21.0108C2.78325 20.3834 3.0441 19.7658 3.32449 19.1588L2.41668 18.7394ZM0.93078 22.6161C0.727574 23.275 0.545602 23.9431 0.38565 24.6195L1.35881 24.8496C1.51361 24.195 1.68971 23.5485 1.88637 22.9109L0.93078 22.6161ZM-0.0244744 26.6558C-0.137833 27.3352 -0.229221 28.0219 -0.297897 28.7151L0.697232 28.8137C0.763714 28.1426 0.852175 27.4779 0.96189 26.8203L-0.0244744 26.6558ZM-0.434139 30.7856C-0.445466 31.131 -0.451172 31.4778 -0.451172 31.8258H0.548828C0.548828 31.4887 0.554355 31.1529 0.565323 30.8184L-0.434139 30.7856ZM-0.451172 31.8258C-0.451172 32.1739 -0.445466 32.5207 -0.43414 32.8661L0.565323 32.8333C0.554355 32.4988 0.548828 32.163 0.548828 31.8258H-0.451172ZM-0.297898 34.9366C-0.229222 35.6298 -0.137834 36.3165 -0.0244753 36.9959L0.961889 36.8314C0.852174 36.1738 0.763713 35.5091 0.697231 34.838L-0.297898 34.9366ZM0.38565 39.0322C0.545601 39.7086 0.727574 40.3767 0.930779 41.0355L1.88637 40.7408C1.68971 40.1032 1.51361 39.4567 1.35881 38.8021L0.38565 39.0322ZM1.60898 42.9988C1.8575 43.6471 2.12701 44.2852 2.41668 44.9123L3.32449 44.4929C3.0441 43.8859 2.78325 43.2683 2.54273 42.6409L1.60898 42.9988ZM3.34953 46.7671C3.68144 47.3759 4.033 47.9727 4.40335 48.5566L5.24781 48.021C4.88921 47.4556 4.54884 46.8778 4.22752 46.2885L3.34953 46.7671ZM5.57258 50.2724C5.98113 50.8316 6.40777 51.377 6.85163 51.9077L7.61874 51.2662C7.18884 50.7522 6.77566 50.224 6.38001 49.6825L5.57258 50.2724ZM8.23472 53.456C8.71224 53.9567 9.20614 54.442 9.71558 54.911L10.3929 54.1752C9.89936 53.7209 9.42093 53.2509 8.95839 52.7659L8.23472 53.456ZM11.2878 56.2667C11.8257 56.7009 12.3781 57.118 12.9444 57.5174L13.5207 56.7002C12.9722 56.3133 12.437 55.9092 11.9159 55.4886L11.2878 56.2667ZM14.6789 58.6583C15.268 59.0189 15.8698 59.3611 16.4836 59.6841L16.9493 58.7992C16.3547 58.4863 15.7717 58.1548 15.201 57.8054L14.6789 58.6583ZM18.3509 60.5905C18.9812 60.8716 19.6225 61.133 20.2738 61.3739L20.6208 60.4361C19.9899 60.2026 19.3687 59.9494 18.7581 59.6772L18.3509 60.5905ZM22.2431 62.0305C22.9034 62.227 23.5728 62.403 24.2503 62.5576L24.4728 61.5827C23.8164 61.4329 23.168 61.2624 22.5284 61.072L22.2431 62.0305ZM26.2885 62.9538C26.968 63.0632 27.6546 63.1514 28.3477 63.2177L28.4429 62.2222C27.7712 62.158 27.1058 62.0725 26.4475 61.9665L26.2885 62.9538ZM30.4176 63.3491C30.7628 63.3601 31.1094 63.3656 31.4573 63.3656V62.3656C31.1199 62.3656 30.7839 62.3602 30.4492 62.3496L30.4176 63.3491ZM31.4573 63.3656C31.8052 63.3656 32.1518 63.3601 32.497 63.3491L32.4654 62.3496C32.1307 62.3602 31.7946 62.3656 31.4573 62.3656V63.3656ZM34.5668 63.2177C35.2599 63.1514 35.9466 63.0632 36.626 62.9538L36.4671 61.9665C35.8087 62.0725 35.1433 62.158 34.4716 62.2222L34.5668 63.2177ZM38.6642 62.5576C39.3418 62.403 40.0111 62.227 40.6715 62.0305L40.3862 61.072C39.7465 61.2624 39.0981 61.4329 38.4417 61.5827L38.6642 62.5576ZM42.6407 61.3739C43.2921 61.133 43.9333 60.8716 44.5637 60.5905L44.1565 59.6772C43.5458 59.9494 42.9247 60.2026 42.2938 60.4361L42.6407 61.3739ZM46.4309 59.6841C47.0447 59.3611 47.6466 59.0189 48.2357 58.6583L47.7135 57.8054C47.1429 58.1548 46.5598 58.4863 45.9653 58.7992L46.4309 59.6841ZM49.9702 57.5174C50.5364 57.118 51.0889 56.7009 51.6268 56.2667L50.9986 55.4886C50.4776 55.9092 49.9424 56.3133 49.3938 56.7002L49.9702 57.5174ZM53.199 54.911C53.7084 54.442 54.2023 53.9567 54.6798 53.456L53.9562 52.7659C53.4936 53.2509 53.0152 53.7209 52.5217 54.1752L53.199 54.911ZM56.0629 51.9077C56.5068 51.377 56.9334 50.8316 57.342 50.2724L56.5345 49.6825C56.1389 50.224 55.7257 50.7522 55.2958 51.2662L56.0629 51.9077ZM58.5112 48.5566C58.8816 47.9727 59.2331 47.3759 59.565 46.7671L58.687 46.2885C58.3657 46.8778 58.0253 47.4556 57.6667 48.021L58.5112 48.5566ZM60.4979 44.9123C60.7875 44.2852 61.0571 43.6471 61.3056 42.9988L60.3718 42.6409C60.1313 43.2683 59.8704 43.8859 59.5901 44.4929L60.4979 44.9123ZM61.9838 41.0355C62.187 40.3767 62.3689 39.7086 62.5289 39.0322L61.5557 38.8021C61.4009 39.4567 61.2248 40.1032 61.0282 40.7408L61.9838 41.0355ZM62.939 36.9959C63.0524 36.3165 63.1438 35.6298 63.2124 34.9366L62.2173 34.838C62.1508 35.5091 62.0624 36.1738 61.9527 36.8314L62.939 36.9959ZM63.3487 32.8661C63.36 32.5207 63.3657 32.1739 63.3657 31.8258H62.3657C62.3657 32.163 62.3602 32.4988 62.3492 32.8333L63.3487 32.8661ZM63.8657 31.8258C63.8657 31.4723 63.8599 31.1201 63.8484 30.7692L61.8495 30.8348C61.8603 31.1638 61.8657 31.4942 61.8657 31.8258H63.8657ZM63.71 28.6658C63.6402 27.9615 63.5474 27.2638 63.4322 26.5735L61.4595 26.9026C61.5674 27.5493 61.6544 28.2029 61.7198 28.863L63.71 28.6658ZM63.0155 24.5044C62.853 23.8171 62.668 23.1383 62.4616 22.4688L60.5504 23.0582C60.7438 23.6852 60.9169 24.321 61.0692 24.9647L63.0155 24.5044ZM61.7724 20.4739C61.5199 19.8152 61.2461 19.1669 60.9518 18.5297L59.1362 19.3685C59.4119 19.9654 59.6684 20.5728 59.9049 21.1898L61.7724 20.4739ZM60.004 16.6452C59.6668 16.0267 59.3097 15.4205 58.9334 14.8273L57.2445 15.8985C57.5972 16.4546 57.932 17.0229 58.248 17.6026L60.004 16.6452ZM57.7457 13.0843C57.3307 12.5163 56.8973 11.9623 56.4465 11.4232L54.9123 12.7062C55.3352 13.2119 55.7416 13.7315 56.1308 14.2642L57.7457 13.0843ZM55.0417 9.8506C54.5567 9.34204 54.055 8.84918 53.5376 8.37287L52.183 9.84432C52.6686 10.2913 53.1393 10.7537 53.5943 11.2309L55.0417 9.8506ZM51.9408 6.99596C51.3945 6.55499 50.8334 6.13129 50.2584 5.7257L49.1057 7.36011C49.6454 7.74074 50.1719 8.13837 50.6846 8.5522L51.9408 6.99596ZM48.4967 4.56699C47.8984 4.20071 47.2872 3.85313 46.6638 3.52508L45.7324 5.29499C46.3174 5.60282 46.891 5.92899 47.4525 6.27272L48.4967 4.56699ZM44.7673 2.60451C44.127 2.31906 43.4758 2.05356 42.8142 1.80882L42.1203 3.68458C42.741 3.91422 43.3521 4.16333 43.9528 4.43117L44.7673 2.60451ZM40.8141 1.14199C40.1434 0.942368 39.4636 0.763649 38.7754 0.606599L38.3305 2.55647C38.9763 2.70386 39.6142 2.87157 40.2435 3.05888L40.8141 1.14199ZM36.7055 0.204248C36.0155 0.093138 35.3182 0.00358123 34.6144 -0.0637102L34.424 1.92721C35.0851 1.99041 35.7398 2.07451 36.3876 2.17881L36.7055 0.204248ZM32.5128 -0.197185C32.1623 -0.208279 31.8104 -0.213867 31.4573 -0.213867V1.78613C31.7893 1.78613 32.1201 1.79139 32.4495 1.80181L32.5128 -0.197185ZM31.4573 -0.213867C31.1041 -0.213867 30.7522 -0.208279 30.4017 -0.197185L30.465 1.80181C30.7944 1.79139 31.1252 1.78613 31.4573 1.78613V-0.213867ZM28.3001 -0.0637106C27.5964 0.00358069 26.8991 0.0931374 26.209 0.204248L26.527 2.17881C27.1748 2.07451 27.8295 1.99041 28.4905 1.92721L28.3001 -0.0637106ZM24.1391 0.606598C23.4509 0.763649 22.7711 0.942367 22.1005 1.14199L22.671 3.05888C23.3003 2.87157 23.9383 2.70386 24.5841 2.55647L24.1391 0.606598ZM20.1004 1.80882C19.4388 2.05356 18.7875 2.31906 18.1473 2.60451L18.9617 4.43117C19.5624 4.16333 20.1735 3.91422 20.7943 3.68458L20.1004 1.80882ZM16.2508 3.52509C15.6274 3.85313 15.0161 4.20071 14.4178 4.56699L15.4621 6.27272C16.0235 5.92899 16.5972 5.60282 17.1821 5.29499L16.2508 3.52509ZM12.6562 5.72571C12.0811 6.13129 11.52 6.55499 10.9737 6.99596L12.23 8.5522C12.7426 8.13837 13.2692 7.74074 13.8089 7.36011L12.6562 5.72571ZM9.37694 8.37287C8.85953 8.84918 8.35789 9.34204 7.87289 9.8506L9.32022 11.2309C9.77527 10.7537 10.246 10.2913 10.7315 9.84432L9.37694 8.37287ZM6.46807 11.4232C6.01723 11.9623 5.58387 12.5163 5.16886 13.0843L6.78372 14.2642C7.17292 13.7315 7.57938 13.212 8.00229 12.7062L6.46807 11.4232ZM3.98112 14.8273C3.60489 15.4205 3.24774 16.0267 2.91053 16.6452L4.66651 17.6026C4.98254 17.0229 5.31731 16.4546 5.67003 15.8985L3.98112 14.8273ZM1.96277 18.5298C1.66845 19.1669 1.39462 19.8152 1.14211 20.4739L3.0096 21.1898C3.24613 20.5728 3.50265 19.9654 3.7784 19.3685L1.96277 18.5298ZM0.452986 22.4688C0.246505 23.1383 0.0615993 23.8171 -0.10093 24.5044L1.84539 24.9647C1.99761 24.321 2.17078 23.6852 2.36416 23.0582L0.452986 22.4688ZM-0.517657 26.5735C-0.632838 27.2638 -0.725689 27.9615 -0.795461 28.6658L1.1948 28.863C1.26018 28.2029 1.34718 27.5493 1.45507 26.9026L-0.517657 26.5735ZM-0.933871 30.7692C-0.945376 31.1201 -0.951172 31.4723 -0.951172 31.8258H1.04883C1.04883 31.4942 1.05427 31.1638 1.06505 30.8348L-0.933871 30.7692ZM-0.951172 31.8258C-0.951172 32.1794 -0.945376 32.5316 -0.933871 32.8825L1.06505 32.8169C1.05427 32.4879 1.04883 32.1575 1.04883 31.8258H-0.951172ZM-0.795462 34.9859C-0.72569 35.6902 -0.632839 36.3879 -0.517658 37.0782L1.45507 36.7491C1.34718 36.1024 1.26018 35.4487 1.1948 34.7887L-0.795462 34.9859ZM-0.100931 39.1473C0.0615985 39.8346 0.246505 40.5134 0.452985 41.1829L2.36416 40.5935C2.17078 39.9665 1.99761 39.3307 1.84539 38.687L-0.100931 39.1473ZM1.14211 43.1778C1.39462 43.8365 1.66846 44.4848 1.96277 45.1219L3.7784 44.2832C3.50265 43.6863 3.24613 43.0789 3.0096 42.4619L1.14211 43.1778ZM2.91053 47.0065C3.24774 47.625 3.60489 48.2312 3.98112 48.8244L5.67003 47.7532C5.31732 47.1971 4.98254 46.6288 4.66651 46.0491L2.91053 47.0065ZM5.16886 50.5674C5.58387 51.1354 6.01723 51.6894 6.46808 52.2285L8.0023 50.9455C7.57938 50.4397 7.17292 49.9202 6.78372 49.3875L5.16886 50.5674ZM7.87289 53.8011C8.35789 54.3097 8.85953 54.8025 9.37694 55.2788L10.7315 53.8074C10.246 53.3604 9.77528 52.898 9.32022 52.4208L7.87289 53.8011ZM10.9737 56.6557C11.52 57.0967 12.0811 57.5204 12.6562 57.926L13.8089 56.2916C13.2692 55.911 12.7426 55.5133 12.23 55.0995L10.9737 56.6557ZM14.4178 59.0847C15.0161 59.451 15.6274 59.7986 16.2508 60.1266L17.1821 58.3567C16.5972 58.0489 16.0236 57.7227 15.4621 57.379L14.4178 59.0847ZM18.1473 61.0472C18.7875 61.3326 19.4388 61.5981 20.1004 61.8429L20.7943 59.9671C20.1736 59.7375 19.5624 59.4884 18.9617 59.2205L18.1473 61.0472ZM22.1005 62.5097C22.7711 62.7093 23.4509 62.888 24.1391 63.0451L24.5841 61.0952C23.9383 60.9478 23.3003 60.7801 22.671 60.5928L22.1005 62.5097ZM26.209 63.4474C26.8991 63.5586 27.5964 63.6481 28.3001 63.7154L28.4905 61.7245C27.8295 61.6613 27.1748 61.5772 26.527 61.4729L26.209 63.4474ZM30.4017 63.8489C30.7522 63.86 31.1041 63.8656 31.4573 63.8656V61.8656C31.1252 61.8656 30.7944 61.8603 30.465 61.8499L30.4017 63.8489ZM31.4573 63.8656C31.8104 63.8656 32.1623 63.86 32.5128 63.8489L32.4495 61.8499C32.1201 61.8603 31.7893 61.8656 31.4573 61.8656V63.8656ZM34.6144 63.7154C35.3182 63.6481 36.0155 63.5586 36.7055 63.4474L36.3876 61.4729C35.7398 61.5772 35.0851 61.6613 34.424 61.7245L34.6144 63.7154ZM38.7754 63.0451C39.4636 62.888 40.1434 62.7093 40.8141 62.5097L40.2435 60.5928C39.6142 60.7801 38.9763 60.9478 38.3305 61.0952L38.7754 63.0451ZM42.8142 61.8429C43.4758 61.5981 44.1271 61.3326 44.7673 61.0472L43.9528 59.2205C43.3521 59.4884 42.741 59.7375 42.1203 59.9671L42.8142 61.8429ZM46.6638 60.1266C47.2872 59.7986 47.8984 59.451 48.4967 59.0847L47.4525 57.379C46.891 57.7227 46.3174 58.0489 45.7324 58.3567L46.6638 60.1266ZM50.2584 57.926C50.8334 57.5204 51.3945 57.0967 51.9408 56.6557L50.6846 55.0995C50.1719 55.5133 49.6454 55.9109 49.1057 56.2916L50.2584 57.926ZM53.5376 55.2788C54.055 54.8025 54.5567 54.3097 55.0417 53.8011L53.5943 52.4208C53.1393 52.898 52.6686 53.3604 52.1831 53.8074L53.5376 55.2788ZM56.4465 52.2285C56.8973 51.6894 57.3307 51.1354 57.7457 50.5674L56.1308 49.3875C55.7416 49.9202 55.3352 50.4397 54.9123 50.9455L56.4465 52.2285ZM58.9334 48.8244C59.3097 48.2312 59.6668 47.625 60.004 47.0065L58.248 46.0491C57.932 46.6288 57.5972 47.1971 57.2445 47.7532L58.9334 48.8244ZM60.9518 45.1219C61.2461 44.4848 61.5199 43.8365 61.7724 43.1778L59.9049 42.4619C59.6684 43.0789 59.4119 43.6863 59.1362 44.2832L60.9518 45.1219ZM62.4616 41.1829C62.668 40.5134 62.853 39.8346 63.0155 39.1473L61.0692 38.687C60.9169 39.3307 60.7438 39.9665 60.5504 40.5935L62.4616 41.1829ZM63.4322 37.0782C63.5474 36.3879 63.6402 35.6902 63.71 34.9859L61.7198 34.7887C61.6544 35.4488 61.5674 36.1024 61.4595 36.7491L63.4322 37.0782ZM63.8484 32.8825C63.8599 32.5316 63.8657 32.1794 63.8657 31.8258H61.8657C61.8657 32.1575 61.8603 32.4879 61.8495 32.8169L63.8484 32.8825Z" fill="white" mask="url(#path-1-inside-1_639_4104)"/>
<path d="M23.207 31.8259H39.707" stroke="white" stroke-width="2" stroke-linecap="square" stroke-linejoin="round"/>
<path d="M33.8457 25.0759L40.5957 31.8259L33.8457 38.5759" stroke="white" stroke-width="2" stroke-linecap="square"/>
</svg>
