<svg width="20" height="20" viewBox="0 0 20 20" fill="none" xmlns="http://www.w3.org/2000/svg">
<path fill-rule="evenodd" clip-rule="evenodd" d="M19.2002 17.5913L13.7967 12.1878C14.7529 10.9216 15.32 9.34504 15.32 7.63606C15.32 3.46085 11.9353 0.0761719 7.76009 0.0761719C3.58488 0.0761719 0.200195 3.46085 0.200195 7.63606C0.200195 11.8113 3.58488 15.196 7.76009 15.196C9.46906 15.196 11.0456 14.6289 12.3118 13.6727L17.7153 19.0762L19.2002 17.5913ZM13.2216 7.6357C13.2216 10.6512 10.7771 13.0957 7.76169 13.0957C4.74625 13.0957 2.30176 10.6512 2.30176 7.6357C2.30176 4.62027 4.74625 2.17578 7.76169 2.17578C10.7771 2.17578 13.2216 4.62027 13.2216 7.6357Z" fill="black"/>
</svg>
