<svg width="20" height="20" viewBox="0 0 20 20" fill="none" xmlns="http://www.w3.org/2000/svg">
<path fill-rule="evenodd" clip-rule="evenodd" d="M19.7002 17.5673L14.2967 12.1638C15.2529 10.8976 15.82 9.32112 15.82 7.61214C15.82 3.43693 12.4353 0.0522461 8.26009 0.0522461C4.08488 0.0522461 0.700195 3.43693 0.700195 7.61214C0.700195 11.7873 4.08488 15.172 8.26009 15.172C9.96906 15.172 11.5456 14.6049 12.8118 13.6487L18.2153 19.0522L19.7002 17.5673ZM13.7216 7.61178C13.7216 10.6272 11.2771 13.0717 8.26169 13.0717C5.24625 13.0717 2.80176 10.6272 2.80176 7.61178C2.80176 4.59635 5.24625 2.15186 8.26169 2.15186C11.2771 2.15186 13.7216 4.59635 13.7216 7.61178Z" fill="white"/>
</svg>
