<svg width="109" height="111" viewBox="0 0 109 111" fill="none" xmlns="http://www.w3.org/2000/svg">
<g clip-path="url(#clip0_639_2750)">
<path d="M17.0312 7.80869H13.625V11.2473H17.0312V7.80869Z" fill="#222829"/>
<path d="M23.8438 7.80869H20.4375V11.2473H23.8438V7.80869Z" fill="#222829"/>
<path d="M30.6562 7.80869H27.25V11.2473H30.6562V7.80869Z" fill="#222829"/>
<path d="M102.188 7.80869H34.0625V11.2473H102.188V7.80869Z" fill="#222829"/>
<path d="M35.7656 104.06H0V14.6838H3.40625V100.623H35.7656V104.06Z" fill="#222829"/>
<path d="M109 104.06H73.2344V100.623H105.594V4.37114H3.40625V7.80869H10.2188V11.2462H0V0.933594H109V104.06Z" fill="#222829"/>
<path d="M102.188 97.185H73.2344V93.7475H98.7812V18.1214H10.2188V93.7475H35.7656V97.185H6.8125V14.6838H102.188V97.185Z" fill="#222829"/>
<path d="M59.6094 62.8095H56.2031V38.7467C56.2031 37.3791 56.7414 36.0676 57.6996 35.1006C58.6578 34.1336 59.9574 33.5903 61.3125 33.5903C62.6676 33.5903 63.9672 34.1336 64.9254 35.1006C65.8836 36.0676 66.4219 37.3791 66.4219 38.7467V50.7781H63.0156V38.7467C63.0156 38.2908 62.8362 37.8536 62.5168 37.5313C62.1974 37.209 61.7642 37.0279 61.3125 37.0279C60.8608 37.0279 60.4276 37.209 60.1082 37.5313C59.7888 37.8536 59.6094 38.2908 59.6094 38.7467V62.8095Z" fill="#222829"/>
<path d="M69.8281 110.935H66.4219V97.185H42.5781V110.935H39.1719V93.7474H69.8281V110.935Z" fill="#222829"/>
<path d="M63.0156 100.623H59.6094V104.061H63.0156V100.623Z" fill="#222829"/>
<path d="M42.5781 95.4662H39.1719V88.8661L35.7656 78.5535V45.6217C35.7656 44.2542 36.3039 42.9427 37.2621 41.9757C38.2203 41.0087 39.5199 40.4654 40.875 40.4654C42.2301 40.4654 43.5297 41.0087 44.4879 41.9757C45.4461 42.9427 45.9844 44.2542 45.9844 45.6217V66.247H42.5781V45.6217C42.5781 45.1659 42.3987 44.7287 42.0793 44.4064C41.7599 44.0841 41.3267 43.903 40.875 43.903C40.4233 43.903 39.9901 44.0841 39.6707 44.4064C39.3513 44.7287 39.1719 45.1659 39.1719 45.6217V78.0035L42.5781 88.3161V95.4662Z" fill="#222829"/>
<path d="M45.9844 45.6218H42.5781V37.0279C42.5781 35.6603 43.1164 34.3488 44.0746 33.3818C45.0328 32.4148 46.3324 31.8716 47.6875 31.8716C49.0426 31.8716 50.3422 32.4148 51.3004 33.3818C52.2586 34.3488 52.7969 35.6603 52.7969 37.0279H49.3906C49.3906 36.572 49.2112 36.1349 48.8918 35.8125C48.5724 35.4902 48.1392 35.3091 47.6875 35.3091C47.2358 35.3091 46.8026 35.4902 46.4832 35.8125C46.1638 36.1349 45.9844 36.572 45.9844 37.0279V45.6218Z" fill="#222829"/>
<path d="M66.4219 90.3099H63.0156V86.4598L69.8281 72.7096V57.6532C69.8281 57.1973 69.6487 56.7601 69.3293 56.4378C69.0099 56.1155 68.5767 55.9344 68.125 55.9344C67.6733 55.9344 67.2401 56.1155 66.9207 56.4378C66.6013 56.7601 66.4219 57.1973 66.4219 57.6532V69.6846H63.0156V57.6532C63.0156 56.2856 63.5539 54.9741 64.5121 54.0071C65.4703 53.0401 66.7699 52.4968 68.125 52.4968C69.4801 52.4968 70.7797 53.0401 71.7379 54.0071C72.6961 54.9741 73.2344 56.2856 73.2344 57.6532V73.5346L66.4219 87.2848V90.3099Z" fill="#222829"/>
<path d="M52.7969 62.8095H49.3906V33.5903C49.3906 32.2228 49.9289 30.9112 50.8871 29.9442C51.8453 28.9772 53.1449 28.434 54.5 28.434C55.8551 28.434 57.1547 28.9772 58.1129 29.9442C59.0711 30.9112 59.6094 32.2228 59.6094 33.5903V38.7466H56.2031V33.5903C56.2031 33.1345 56.0237 32.6973 55.7043 32.375C55.3849 32.0526 54.9517 31.8715 54.5 31.8715C54.0483 31.8715 53.6151 32.0526 53.2957 32.375C52.9763 32.6973 52.7969 33.1345 52.7969 33.5903V62.8095Z" fill="#222829"/>
</g>
<defs>
<clipPath id="clip0_639_2750">
<rect width="109" height="110.002" fill="white" transform="translate(0 0.933594)"/>
</clipPath>
</defs>
</svg>
