<svg width="121" height="121" viewBox="0 0 121 121" fill="none" xmlns="http://www.w3.org/2000/svg">
<g clip-path="url(#clip0_639_2765)">
<path d="M118.634 108.903H41.7593V112.653H118.634V108.903Z" fill="black"/>
<path d="M111.134 120.153C110.647 120.153 110.178 119.966 109.803 119.61C109.072 118.878 109.072 117.697 109.803 116.966L117.303 109.466C118.034 108.735 119.215 108.735 119.947 109.466C120.678 110.197 120.678 111.378 119.947 112.11L112.447 119.61C112.09 119.966 111.622 120.153 111.134 120.153Z" fill="black"/>
<path d="M118.634 112.653C118.147 112.653 117.678 112.466 117.303 112.11L109.803 104.61C109.072 103.878 109.072 102.697 109.803 101.966C110.534 101.235 111.715 101.235 112.447 101.966L119.947 109.466C120.678 110.197 120.678 111.378 119.947 112.11C119.59 112.466 119.122 112.653 118.634 112.653Z" fill="black"/>
<path d="M11.7593 2.02832H8.00928V78.9033H11.7593V2.02832Z" fill="black"/>
<path d="M2.38408 11.4033C1.89658 11.4033 1.42783 11.2158 1.05283 10.8596C0.321582 10.1283 0.321582 8.94708 1.05283 8.21583L8.55283 0.715826C9.28408 -0.0154236 10.4653 -0.0154236 11.1966 0.715826C11.9278 1.44708 11.9278 2.62833 11.1966 3.35958L3.69658 10.8596C3.34033 11.2158 2.87158 11.4033 2.38408 11.4033Z" fill="black"/>
<path d="M17.3841 11.4033C16.8966 11.4033 16.4278 11.2158 16.0528 10.8596L8.55283 3.35958C7.82158 2.62833 7.82158 1.44708 8.55283 0.715826C9.28408 -0.0154236 10.4653 -0.0154236 11.1966 0.715826L18.6966 8.21583C19.4278 8.94708 19.4278 10.1283 18.6966 10.8596C18.3403 11.2158 17.8716 11.4033 17.3841 11.4033Z" fill="black"/>
<path d="M19.2593 63.9033H15.5093V67.6533H19.2593V63.9033Z" fill="black"/>
<path d="M26.7593 63.9033H23.0093V67.6533H26.7593V63.9033Z" fill="black"/>
<path d="M34.2593 63.9033H30.5093V67.6533H34.2593V63.9033Z" fill="black"/>
<path d="M41.7593 63.9033H38.0093V67.6533H41.7593V63.9033Z" fill="black"/>
<path d="M19.2593 18.9033H15.5093V22.6533H19.2593V18.9033Z" fill="black"/>
<path d="M26.7593 18.9033H23.0093V22.6533H26.7593V18.9033Z" fill="black"/>
<path d="M34.2593 18.9033H30.5093V22.6533H34.2593V18.9033Z" fill="black"/>
<path d="M41.7593 18.9033H38.0093V22.6533H41.7593V18.9033Z" fill="black"/>
<path d="M49.2593 18.9033H45.5093V22.6533H49.2593V18.9033Z" fill="black"/>
<path d="M56.7593 18.9033H53.0093V22.6533H56.7593V18.9033Z" fill="black"/>
<path d="M64.2593 18.9033H60.5093V22.6533H64.2593V18.9033Z" fill="black"/>
<path d="M71.7593 18.9033H68.0093V22.6533H71.7593V18.9033Z" fill="black"/>
<path d="M19.2593 41.4033H15.5093V45.1533H19.2593V41.4033Z" fill="black"/>
<path d="M26.7593 41.4033H23.0093V45.1533H26.7593V41.4033Z" fill="black"/>
<path d="M34.2593 41.4033H30.5093V45.1533H34.2593V41.4033Z" fill="black"/>
<path d="M41.7593 41.4033H38.0093V45.1533H41.7593V41.4033Z" fill="black"/>
<path d="M49.2593 41.4033H45.5093V45.1533H49.2593V41.4033Z" fill="black"/>
<path d="M56.7593 41.4033H53.0093V45.1533H56.7593V41.4033Z" fill="black"/>
<path d="M64.2593 41.4033H60.5093V45.1533H64.2593V41.4033Z" fill="black"/>
<path d="M79.2593 18.9033H75.5093V22.6533H79.2593V18.9033Z" fill="black"/>
<path d="M86.7593 18.9033H83.0093V22.6533H86.7593V18.9033Z" fill="black"/>
<path d="M56.7593 78.9033H53.0093V82.6533H56.7593V78.9033Z" fill="black"/>
<path d="M56.7593 86.4033H53.0093V90.1533H56.7593V86.4033Z" fill="black"/>
<path d="M56.7593 93.9033H53.0093V97.6533H56.7593V93.9033Z" fill="black"/>
<path d="M56.7593 101.403H53.0093V105.153H56.7593V101.403Z" fill="black"/>
<path d="M79.2593 71.4033H75.5093V75.1533H79.2593V71.4033Z" fill="black"/>
<path d="M79.2593 78.9033H75.5093V82.6533H79.2593V78.9033Z" fill="black"/>
<path d="M79.2593 56.4033H75.5093V60.1533H79.2593V56.4033Z" fill="black"/>
<path d="M79.2593 63.9033H75.5093V67.6533H79.2593V63.9033Z" fill="black"/>
<path d="M79.2593 86.4033H75.5093V90.1533H79.2593V86.4033Z" fill="black"/>
<path d="M79.2593 93.9033H75.5093V97.6533H79.2593V93.9033Z" fill="black"/>
<path d="M79.2593 101.403H75.5093V105.153H79.2593V101.403Z" fill="black"/>
<path d="M101.759 56.4033H98.0093V60.1533H101.759V56.4033Z" fill="black"/>
<path d="M101.759 63.9033H98.0093V67.6533H101.759V63.9033Z" fill="black"/>
<path d="M101.759 71.4033H98.0093V75.1533H101.759V71.4033Z" fill="black"/>
<path d="M101.759 78.9033H98.0093V82.6533H101.759V78.9033Z" fill="black"/>
<path d="M101.759 86.4033H98.0093V90.1533H101.759V86.4033Z" fill="black"/>
<path d="M101.759 93.9033H98.0093V97.6533H101.759V93.9033Z" fill="black"/>
<path d="M101.759 33.9033H98.0093V37.6533H101.759V33.9033Z" fill="black"/>
<path d="M101.759 41.4033H98.0093V45.1533H101.759V41.4033Z" fill="black"/>
<path d="M101.759 48.9033H98.0093V52.6533H101.759V48.9033Z" fill="black"/>
<path d="M101.759 101.403H98.0093V105.153H101.759V101.403Z" fill="black"/>
<path d="M56.7593 75.1533H53.0093V67.6533H45.5093V63.9033H56.7593V75.1533Z" fill="black"/>
<path d="M79.2593 52.6533H75.5093V45.1533H68.0093V41.4033H79.2593V52.6533Z" fill="black"/>
<path d="M101.759 30.1533H98.0093V22.6533H90.5093V18.9033H101.759V30.1533Z" fill="black"/>
<path d="M23.0093 112.653C14.7405 112.653 8.00928 105.922 8.00928 97.6533C8.00928 89.3846 14.7405 82.6533 23.0093 82.6533C31.278 82.6533 38.0093 89.3846 38.0093 97.6533C38.0093 105.922 31.278 112.653 23.0093 112.653ZM23.0093 86.4033C16.803 86.4033 11.7593 91.4471 11.7593 97.6533C11.7593 103.86 16.803 108.903 23.0093 108.903C29.2155 108.903 34.2593 103.86 34.2593 97.6533C34.2593 91.4471 29.2155 86.4033 23.0093 86.4033Z" fill="black"/>
</g>
<defs>
<clipPath id="clip0_639_2765">
<rect width="120" height="120" fill="white" transform="translate(0.509277 0.15332)"/>
</clipPath>
</defs>
</svg>
