<svg width="18" height="19" viewBox="0 0 18 19" fill="none" xmlns="http://www.w3.org/2000/svg">
<path fill-rule="evenodd" clip-rule="evenodd" d="M12.9458 0.473145H4.9342C2.21348 0.473145 0 2.68246 0 5.39793V13.3941C0 16.1097 2.21348 18.3189 4.9342 18.3189H12.9458C15.6668 18.3189 17.8803 16.1096 17.8803 13.3941V5.39793C17.8804 2.68246 15.6668 0.473145 12.9458 0.473145ZM16.2922 13.3934C16.2922 15.2359 14.7903 16.7348 12.9443 16.7348H4.9325C3.08654 16.7349 1.58472 15.2359 1.58472 13.3934V5.39722C1.58472 3.55482 3.08654 2.05579 4.9325 2.05579H12.9441C14.7902 2.05579 16.2921 3.55482 16.2921 5.39722V13.3934H16.2922Z" fill="black"/>
<path fill-rule="evenodd" clip-rule="evenodd" d="M8.93932 4.79834C6.39882 4.79834 4.33203 6.86114 4.33203 9.39674C4.33203 11.9322 6.39882 13.9949 8.93932 13.9949C11.4798 13.9949 13.5466 11.9322 13.5466 9.39674C13.5466 6.86114 11.4798 4.79834 8.93932 4.79834ZM8.93762 12.4119C7.27198 12.4119 5.91675 11.0595 5.91675 9.39707C5.91675 7.73453 7.27188 6.38202 8.93762 6.38202C10.6034 6.38202 11.9585 7.73453 11.9585 9.39707C11.9585 11.0595 10.6033 12.4119 8.93762 12.4119Z" fill="black"/>
<path fill-rule="evenodd" clip-rule="evenodd" d="M13.7415 3.45557C13.4359 3.45557 13.1356 3.57907 12.9197 3.79547C12.7028 4.0108 12.5781 4.31059 12.5781 4.61671C12.5781 4.92187 12.7029 5.22155 12.9197 5.43794C13.1355 5.65328 13.4359 5.77784 13.7415 5.77784C14.0482 5.77784 14.3475 5.65328 14.5643 5.43794C14.7811 5.22155 14.9049 4.92177 14.9049 4.61671C14.9049 4.31059 14.7811 4.0108 14.5643 3.79547C14.3486 3.57907 14.0482 3.45557 13.7415 3.45557Z" fill="black"/>
</svg>
