<svg width="19" height="19" viewBox="0 0 19 19" fill="none" xmlns="http://www.w3.org/2000/svg">
<path fill-rule="evenodd" clip-rule="evenodd" d="M0.691406 18.4731V0.473145H18.6914V18.4731H0.691406ZM4.4409 14.7231H6.6909V6.47314H4.4409V14.7231ZM5.5645 5.52148C4.84 5.52148 4.252 4.92898 4.252 4.19848C4.252 3.46798 4.84 2.87548 5.5645 2.87548C6.289 2.87548 6.877 3.46798 6.877 4.19848C6.877 4.92898 6.28975 5.52148 5.5645 5.52148ZM13.4424 14.7228H15.6924V9.65363C15.6924 5.71388 11.4902 5.85713 10.4424 7.79663V6.47288H8.19242V14.7228H10.4424V10.5198C10.4424 8.18513 13.4424 7.99388 13.4424 10.5198V14.7228Z" fill="black"/>
</svg>
