<svg width="21" height="19" viewBox="0 0 21 19" fill="none" xmlns="http://www.w3.org/2000/svg">
<path fill-rule="evenodd" clip-rule="evenodd" d="M20.4208 0.805912C19.5876 1.32611 18.6669 1.70444 17.6829 1.90687C16.899 1.02449 15.7787 0.473145 14.5385 0.473145C12.1611 0.473145 10.2317 2.50781 10.2317 5.01711C10.2317 5.37353 10.2687 5.71898 10.3427 6.05175C6.76208 5.86201 3.58794 4.05515 1.46175 1.30247C1.09057 1.97607 0.878621 2.75753 0.878621 3.58973C0.878621 5.16533 1.63893 6.55638 2.79566 7.37128C2.0903 7.34937 1.42475 7.1429 0.842736 6.80495V6.86031C0.842736 9.0628 2.32804 10.9002 4.30059 11.316C3.9395 11.4227 3.55822 11.4763 3.16517 11.4763C2.88762 11.4763 2.6168 11.4487 2.35439 11.3956C2.90276 13.2002 4.49291 14.5145 6.37855 14.5497C4.90447 15.7689 3.04574 16.4955 1.02777 16.4955C0.680132 16.4955 0.336422 16.4748 0 16.4332C1.90639 17.7205 4.17219 18.4731 6.60452 18.4731C14.5301 18.4731 18.8626 11.5502 18.8626 5.54481C18.8626 5.347 18.8592 5.14976 18.8519 4.95598C19.6936 4.31525 20.4247 3.51534 21 2.60412C20.2285 2.96515 19.3975 3.20968 18.5262 3.31925C19.416 2.75753 20.0989 1.86707 20.4208 0.805912Z" fill="black"/>
</svg>
